<?xml version="1.0" standalone="no"?>
<!DOCTYPE svg PUBLIC "-//W3C//DTD SVG 20010904//EN"
 "http://www.w3.org/TR/2001/REC-SVG-20010904/DTD/svg10.dtd">
<svg version="1.0" xmlns="http://www.w3.org/2000/svg"
 width="900.000000pt" height="631.000000pt" viewBox="0 0 900.000000 631.000000"
 preserveAspectRatio="xMidYMid meet">

<g transform="translate(0.000000,631.000000) scale(0.100000,-0.100000)"
fill="#000000" stroke="none">
<path d="M4250 6300 c-1093 -91 -2064 -748 -2555 -1730 -227 -453 -335 -910
-335 -1423 0 -847 351 -1675 959 -2260 51 -49 91 -90 89 -91 -2 -1 -34 -28
-71 -61 l-68 -58 33 -35 c111 -116 452 -389 579 -465 103 -60 123 -54 230 72
l46 54 119 -51 c267 -114 540 -189 839 -228 182 -25 601 -25 775 -1 172 24
342 60 490 102 125 36 363 126 452 171 l47 24 65 -79 c76 -92 102 -104 163
-72 96 48 405 315 528 455 l58 67 -52 53 -52 53 65 57 c149 130 385 418 515
627 686 1102 632 2498 -136 3547 -504 689 -1287 1148 -2143 1257 -149 19 -493
27 -640 15z m460 -21 c432 -30 821 -137 1197 -328 941 -477 1569 -1376 1699
-2432 21 -163 23 -525 6 -684 -83 -741 -399 -1397 -921 -1913 -93 -92 -116
-110 -128 -100 -12 9 8 34 115 142 241 243 400 456 542 728 246 471 360 931
360 1454 0 270 -16 420 -71 670 -102 466 -305 892 -605 1271 -102 128 -344
370 -466 466 l-96 77 -37 -16 c-34 -14 -38 -14 -70 6 -34 21 -55 20 -55 -3 0
-7 14 -21 31 -31 26 -15 30 -22 24 -45 -4 -14 -8 -27 -10 -29 -2 -2 -29 15
-59 37 -47 35 -56 47 -56 72 0 34 47 89 76 89 10 0 44 -18 77 -41 32 -23 60
-39 63 -36 11 10 -226 165 -366 239 -232 122 -468 213 -707 274 -284 72 -521
98 -808 91 -282 -8 -453 -31 -715 -97 -348 -87 -794 -301 -1070 -514 -153
-118 -378 -329 -492 -461 -306 -357 -533 -794 -648 -1245 -157 -621 -126
-1245 93 -1845 153 -421 435 -853 751 -1153 76 -72 96 -102 67 -102 -32 0
-307 297 -433 467 -926 1248 -797 2984 302 4083 640 640 1521 973 2410 909z
m-188 -79 c-15 -26 -23 -30 -59 -30 -36 0 -43 -3 -43 -20 0 -17 7 -20 44 -20
33 0 45 -4 50 -17 3 -10 9 -24 12 -30 4 -10 -13 -13 -70 -13 -66 0 -77 3 -90
22 -19 26 -20 67 -5 102 12 26 16 27 146 34 l32 2 -17 -30z m160 20 l29 0 -18
-25 c-14 -19 -27 -24 -60 -25 -36 0 -43 -3 -43 -20 0 -17 7 -20 38 -20 32 0
41 -5 50 -25 7 -14 12 -28 12 -30 0 -3 -31 -5 -69 -5 -61 0 -72 3 -85 22 -22
32 -20 81 6 113 19 25 26 27 66 21 25 -3 58 -6 74 -6z m-337 -30 c-13 -26 -21
-30 -55 -30 -33 0 -40 -3 -40 -20 0 -17 7 -20 43 -20 36 0 46 -4 55 -24 10
-22 8 -24 -26 -30 -78 -13 -110 -8 -128 20 -31 46 -15 119 28 127 13 2 49 5
81 6 l58 1 -16 -30z m517 14 c16 -5 17 -7 1 -30 -14 -22 -20 -24 -59 -18 -40
6 -44 4 -44 -14 0 -22 18 -32 56 -32 17 0 27 -8 35 -26 5 -15 8 -28 6 -30 -2
-2 -32 -1 -67 3 -41 4 -70 13 -82 25 -24 24 -23 79 3 112 20 25 25 27 78 21
31 -4 64 -9 73 -11z m-682 1 c0 -2 -5 -15 -11 -29 -8 -18 -22 -27 -50 -31 -31
-5 -39 -11 -39 -27 0 -19 4 -20 45 -15 31 5 45 3 45 -5 0 -6 7 -20 17 -30 15
-17 14 -18 -23 -18 -21 0 -55 -3 -75 -6 -47 -8 -79 23 -79 76 0 53 17 69 85
79 79 11 85 12 85 6z m832 -21 l47 -6 -17 -25 c-15 -21 -23 -23 -60 -19 -33 5
-44 2 -49 -10 -7 -20 13 -34 48 -34 21 0 28 -6 33 -26 4 -15 5 -29 2 -31 -11
-11 -132 18 -143 34 -20 26 -15 77 8 108 18 22 27 26 53 21 17 -3 52 -8 78
-12z m-1011 -29 c-6 -25 -14 -31 -44 -36 -44 -7 -49 -11 -41 -33 5 -13 14 -15
41 -10 25 5 39 2 53 -11 11 -10 20 -21 20 -25 0 -4 -32 -13 -72 -20 l-72 -13
-24 29 c-20 22 -23 35 -19 67 3 22 9 43 14 48 7 7 143 38 150 34 1 0 -1 -14
-6 -30z m1182 -5 c37 -11 37 -11 20 -35 -10 -13 -25 -22 -33 -20 -69 19 -72
19 -68 -6 2 -16 12 -25 35 -31 22 -6 34 -17 42 -39 9 -26 8 -30 -7 -25 -9 3
-39 10 -67 16 -27 6 -55 16 -62 22 -21 17 -16 82 9 113 23 29 41 30 131 5z
m-678 0 c4 -6 -9 -10 -32 -9 -34 1 -35 2 -13 9 35 11 38 11 45 0z m165 -6 c0
-2 -13 -4 -30 -4 -16 0 -30 4 -30 8 0 5 14 7 30 4 17 -2 30 -6 30 -8z m-838
-23 c-3 -24 -10 -30 -40 -36 -48 -9 -51 -11 -45 -35 4 -13 11 -19 22 -16 56
17 66 16 83 -8 l17 -24 -68 -17 c-80 -19 -101 -13 -121 35 -9 21 -10 41 -4 63
9 29 15 34 74 49 87 22 87 22 82 -11z m483 19 c-28 -12 -55 -12 -55 0 0 6 17
10 38 9 30 0 33 -2 17 -9z m-155 -9 c0 -5 -13 -11 -30 -13 -16 -3 -30 -1 -30
3 0 4 12 10 28 12 15 2 28 5 30 6 1 0 2 -3 2 -8z m690 -1 c0 -7 -14 -8 -37 -4
-52 9 -54 14 -5 14 23 0 42 -5 42 -10z m480 -17 c33 -9 60 -19 60 -23 0 -4 -9
-15 -19 -24 -16 -15 -25 -16 -57 -7 -20 6 -41 8 -46 5 -20 -12 -5 -34 31 -45
32 -9 40 -17 43 -40 3 -16 1 -29 -3 -29 -27 0 -138 43 -143 56 -19 49 14 124
55 124 11 0 46 -7 79 -17z m-325 -3 c7 -12 -12 -12 -40 0 -18 8 -17 9 7 9 15
1 30 -3 33 -9z m-1343 -30 c-3 -25 -11 -32 -43 -42 -39 -11 -51 -34 -24 -44 8
-3 27 -2 43 4 24 8 31 6 48 -13 l20 -22 -67 -22 c-56 -18 -71 -20 -88 -9 -38
23 -53 88 -28 121 9 14 99 50 138 56 3 1 4 -12 1 -29z m328 20 c-8 -5 -26 -10
-40 -10 -20 0 -22 2 -10 10 8 5 26 10 40 10 20 0 22 -2 10 -10z m1175 -20 c18
-8 18 -9 -5 -9 -14 0 -32 4 -40 9 -12 8 -12 10 5 9 11 0 29 -4 40 -9z m-1335
-10 c0 -5 -6 -10 -12 -10 -7 0 -24 -3 -38 -6 -17 -5 -22 -3 -15 4 9 9 30 17
58 21 4 0 7 -3 7 -9z m1668 -11 l62 -21 -25 -20 c-24 -19 -43 -20 -88 -2 -9 3
-16 -2 -20 -15 -4 -17 2 -23 34 -32 33 -11 39 -16 39 -41 0 -32 -6 -33 -75 -9
-76 27 -94 84 -43 139 26 27 38 27 116 1z m-1996 -30 c-4 -26 -12 -35 -43 -47
-41 -16 -44 -19 -30 -41 7 -11 15 -11 44 -1 31 12 37 11 56 -7 l22 -21 -67
-26 c-60 -23 -70 -24 -89 -12 -31 21 -50 72 -39 104 7 19 26 33 74 53 36 15
68 28 71 28 3 1 3 -13 1 -30z m1223 21 c277 -25 443 -60 706 -146 412 -136
820 -391 1137 -712 78 -79 142 -140 142 -135 0 5 -16 25 -36 44 -49 47 -56 61
-43 98 11 32 53 61 88 61 11 0 40 -25 70 -59 l51 -59 -32 -5 c-28 -4 -37 1
-59 27 -23 27 -28 29 -43 17 -15 -13 -15 -16 2 -35 31 -35 33 -44 17 -76 l-15
-30 75 -96 c281 -360 461 -750 560 -1216 94 -445 68 -976 -71 -1437 -139 -458
-416 -911 -763 -1244 l-92 -88 -48 43 c-27 24 -99 89 -161 145 l-112 102 -56
-48 c-31 -27 -62 -47 -69 -44 -8 3 -13 9 -11 13 2 4 44 41 93 82 269 223 485
498 640 813 165 335 240 634 252 1001 23 718 -238 1365 -753 1864 -346 336
-754 551 -1219 645 -294 59 -639 63 -927 10 -682 -125 -1290 -540 -1654 -1128
-408 -659 -484 -1477 -203 -2198 154 -396 451 -798 767 -1039 39 -30 68 -58
66 -62 -5 -8 -81 44 -96 66 -3 5 -73 -46 -154 -115 -82 -68 -156 -130 -166
-137 -16 -12 -26 -7 -82 45 -35 32 -105 104 -157 160 -97 106 -136 135 -55 40
25 -30 46 -64 46 -75 0 -32 -41 -72 -80 -78 -33 -5 -38 -2 -83 52 l-49 58 29
8 c24 7 32 4 55 -22 17 -18 33 -27 43 -24 22 9 19 24 -10 54 -25 26 -25 28
-10 63 l15 37 -58 72 c-168 209 -324 492 -432 783 -181 488 -224 999 -129
1526 27 155 52 250 105 409 74 218 136 353 265 572 271 459 721 875 1194 1103
239 115 414 178 645 230 289 65 603 89 865 65z m613 -10 c7 0 11 -4 8 -9 -7
-11 -54 -2 -63 12 -4 6 2 8 18 4 13 -4 30 -7 37 -7z m-1678 -14 c0 -2 -13 -9
-30 -15 -16 -5 -30 -6 -30 -1 0 5 8 11 18 13 24 7 42 8 42 3z m1991 -22 c35
-14 65 -27 67 -29 1 -1 -9 -10 -23 -19 -22 -15 -32 -15 -62 -5 -29 9 -37 9
-44 -2 -13 -21 -11 -24 25 -37 26 -10 35 -19 38 -42 5 -36 5 -36 -63 -8 -63
25 -79 41 -79 81 0 27 46 87 68 87 4 0 37 -12 73 -26z m-2309 -37 c-3 -26 -10
-35 -43 -49 -28 -12 -37 -21 -33 -32 7 -19 24 -20 58 -5 20 10 29 8 50 -9 l26
-20 -65 -26 c-36 -14 -71 -26 -78 -26 -17 0 -53 39 -61 67 -14 46 2 69 72 101
37 16 69 31 72 31 4 1 4 -14 2 -32z m2136 27 c12 -4 22 -11 22 -16 0 -10 -39
-1 -54 13 -12 11 -1 11 32 3z m-1978 -23 c0 -10 -50 -25 -58 -17 -3 3 6 10 19
15 31 13 39 13 39 2z m2316 -42 l67 -30 -29 -18 c-28 -18 -30 -18 -66 0 -37
19 -37 19 -48 -1 -9 -18 -6 -22 30 -36 36 -14 40 -20 40 -50 l0 -34 -70 35
c-69 35 -70 36 -70 76 0 29 7 47 25 64 31 32 41 31 121 -6z m-156 -11 c0 -11
-4 -10 -35 4 -35 16 -31 29 5 15 17 -6 30 -15 30 -19z m-2480 -26 c0 -22 -7
-32 -35 -45 -37 -17 -40 -23 -26 -45 6 -11 15 -10 44 4 35 17 37 17 57 -1 21
-19 21 -19 -42 -51 -57 -29 -65 -31 -89 -18 -30 15 -52 61 -47 96 2 17 20 32
63 55 33 18 63 33 68 33 4 0 7 -13 7 -28z m166 19 c-8 -13 -66 -32 -66 -21 0
4 12 13 28 18 35 13 44 14 38 3z m2620 -57 l64 -36 -24 -19 c-24 -19 -25 -19
-61 2 -31 18 -38 20 -46 8 -14 -23 -11 -28 26 -46 23 -11 34 -22 30 -31 -3 -7
-5 -20 -5 -28 0 -11 -15 -7 -60 16 -67 34 -81 60 -60 111 10 24 48 56 68 59 2
0 33 -16 68 -36z m-176 11 c33 -17 38 -25 16 -25 -14 0 -67 39 -53 40 4 0 21
-7 37 -15z m-2760 -48 c0 -28 -6 -37 -35 -53 -38 -20 -39 -22 -26 -42 6 -11
15 -10 43 4 31 14 38 15 63 2 l28 -15 -66 -36 c-77 -43 -107 -40 -133 17 -25
52 -13 76 58 118 35 20 64 37 66 37 1 1 2 -14 2 -32z m160 25 c0 -8 -43 -32
-55 -32 -16 0 -1 18 23 27 15 6 28 11 30 12 1 1 2 -3 2 -7z m2755 -54 c21 -9
35 -28 20 -28 -12 0 -55 24 -55 32 0 11 4 10 35 -4z m177 -26 l56 -38 -27 -15
c-26 -15 -30 -15 -55 3 -27 21 -56 18 -56 -4 0 -7 13 -21 30 -30 23 -13 29
-23 27 -47 -1 -17 -3 -31 -5 -31 -1 0 -29 17 -62 37 -54 34 -60 41 -60 72 0
41 41 91 74 91 12 0 47 -17 78 -38z m-3082 0 c0 -9 -44 -32 -58 -32 -9 1 41
39 51 40 4 0 7 -4 7 -8z m-160 -36 c0 -29 -6 -38 -36 -57 -32 -19 -34 -23 -21
-37 14 -13 19 -12 49 6 32 20 34 20 57 3 l23 -18 -58 -36 c-32 -21 -67 -37
-77 -37 -33 0 -67 45 -67 88 0 38 3 42 63 80 34 22 63 41 65 41 1 1 2 -14 2
-33z m3230 -47 c0 -5 -11 -2 -25 7 -14 9 -25 20 -25 25 0 5 11 2 25 -7 14 -9
25 -20 25 -25z m-3230 -19 c-23 -18 -50 -26 -50 -15 0 6 53 34 65 34 6 0 -1
-8 -15 -19z m-171 -81 c-48 -43 -31 -76 21 -39 27 19 32 20 56 7 l27 -14 -55
-42 c-30 -22 -63 -41 -72 -41 -31 0 -76 55 -76 92 1 29 8 39 58 75 l57 42 6
-27 c5 -21 0 -32 -22 -53z m3531 21 c14 -11 20 -20 14 -20 -7 0 -22 9 -35 20
-31 25 -12 26 21 0z m162 -37 l60 -46 -28 -12 c-26 -11 -33 -10 -61 11 -38 29
-39 29 -47 7 -5 -12 2 -25 22 -43 23 -20 28 -30 23 -53 l-6 -29 -57 44 c-60
45 -72 74 -48 118 10 18 55 49 73 50 5 0 36 -21 69 -47z m-1572 12 c1046 -158
1863 -946 2055 -1981 164 -886 -177 -1790 -889 -2358 -44 -35 -74 -52 -86 -49
-15 4 -10 11 28 40 514 388 851 971 937 1618 21 158 21 461 0 619 -130 983
-839 1788 -1789 2031 -72 18 -178 41 -236 50 -143 23 -460 31 -603 15 -548
-59 -1040 -289 -1431 -670 -322 -314 -549 -699 -657 -1117 -59 -232 -73 -343
-73 -613 -1 -275 11 -377 69 -606 83 -325 238 -637 449 -904 87 -111 270 -295
370 -373 44 -34 88 -70 98 -80 10 -9 29 -17 42 -17 29 0 83 -29 206 -109 120
-79 307 -170 430 -209 113 -37 279 -80 335 -87 22 -3 51 -7 65 -11 167 -37
464 -45 635 -15 353 61 633 166 934 349 86 53 144 82 163 82 36 0 95 -30 127
-63 l23 -26 -58 -29 c-33 -16 -120 -75 -195 -130 -277 -205 -430 -278 -730
-353 -206 -51 -331 -64 -604 -64 -239 0 -265 4 -565 81 -318 81 -447 141 -666
305 -65 49 -152 106 -191 126 -40 20 -73 39 -73 43 0 8 65 69 100 93 13 9 19
17 12 17 -40 0 -346 285 -468 436 -355 442 -544 975 -544 1539 0 665 260 1281
736 1745 208 202 382 325 639 451 258 126 554 211 830 238 134 13 445 5 575
-14z m-2099 -16 c-13 -10 -28 -19 -35 -19 -6 0 3 11 19 24 17 13 32 22 35 19
3 -2 -6 -13 -19 -24z m-131 -52 c0 -10 -14 -30 -31 -44 -27 -23 -29 -27 -15
-41 14 -15 18 -13 44 11 27 26 31 27 59 14 l31 -13 -56 -47 c-31 -26 -65 -47
-75 -47 -30 0 -77 54 -77 88 0 24 11 40 52 76 52 46 67 46 68 3z m2045 33
c418 -30 809 -162 1148 -387 843 -559 1242 -1571 1010 -2558 -181 -769 -750
-1407 -1506 -1689 -90 -34 -395 -117 -477 -131 -19 -3 -59 -10 -89 -15 -30 -6
-127 -10 -215 -10 -133 0 -191 5 -331 29 -390 67 -635 155 -892 320 -62 39
-124 76 -139 81 -73 28 -318 240 -444 384 -329 378 -516 787 -586 1281 -23
162 -23 448 0 620 110 824 639 1533 1400 1876 201 91 472 165 691 188 197 22
259 23 430 11z m1725 -40 c14 -10 22 -21 19 -24 -2 -3 -18 6 -34 19 -35 29
-22 33 15 5z m167 -47 l55 -46 -27 -15 c-25 -13 -29 -12 -56 14 -24 23 -31 25
-44 14 -14 -12 -13 -16 10 -40 22 -23 25 -32 18 -58 l-8 -30 -54 49 c-49 46
-53 52 -47 83 8 43 42 73 85 75 8 1 38 -20 68 -46z m-3917 21 c0 -8 -43 -43
-54 -44 -5 0 1 11 14 25 22 24 40 32 40 19z m-177 -124 c-23 -20 -28 -31 -20
-39 16 -16 28 -14 56 13 23 21 29 22 54 11 l29 -12 -55 -46 c-62 -54 -95 -60
-132 -22 -41 40 -34 75 28 134 l52 50 9 -31 c9 -28 6 -34 -21 -58z m4062 40
c27 -30 12 -34 -15 -5 -13 14 -19 25 -13 25 5 0 18 -9 28 -20z m159 -59 l58
-58 -33 -7 c-28 -5 -38 -2 -64 24 -28 28 -33 29 -45 15 -11 -13 -9 -21 17 -48
27 -29 29 -35 19 -59 l-12 -28 -53 60 c-54 62 -58 81 -27 119 10 12 61 39 76
41 3 0 32 -26 64 -59z m-4194 4 c-12 -13 -27 -22 -31 -19 -5 3 3 16 19 29 34
30 43 23 12 -10z m-124 -122 c-11 -13 -22 -21 -24 -18 -3 3 3 14 13 25 27 30
12 34 -15 5 -21 -23 -22 -27 -9 -40 13 -14 18 -12 43 14 24 25 32 28 52 19
l23 -11 -41 -48 c-33 -40 -47 -49 -72 -49 -35 1 -57 15 -74 47 -20 36 -14 54
36 107 l47 51 20 -40 c21 -40 21 -40 1 -62z m4299 29 c-7 -7 -55 39 -55 52 0
5 13 -3 30 -19 16 -16 28 -31 25 -33z m-4421 -84 c5 -25 1 -37 -19 -58 -24
-25 -24 -28 -9 -41 14 -12 20 -9 44 17 25 28 30 30 55 20 l27 -11 -47 -53
c-26 -28 -55 -52 -65 -52 -46 0 -84 34 -92 81 -3 15 79 129 93 129 4 0 9 -14
13 -32z m4518 -5 c10 -9 18 -20 18 -25 0 -16 -18 -8 -34 17 -19 29 -11 33 16
8z m156 -81 l43 -57 -28 -7 c-24 -7 -32 -3 -54 24 -23 28 -29 30 -43 19 -14
-12 -13 -16 8 -43 19 -25 21 -34 12 -54 -6 -13 -14 -24 -17 -24 -4 0 -25 24
-48 54 -37 50 -40 57 -30 85 12 35 50 60 89 60 19 0 36 -14 68 -57z m-4663 18
c-10 -11 -23 -20 -28 -20 -6 0 0 11 13 25 27 29 42 25 15 -5z m-119 -64 c9
-20 8 -29 -12 -53 -27 -33 -30 -49 -9 -57 9 -3 23 6 37 24 17 23 30 30 56 30
l33 0 -32 -45 c-56 -78 -68 -88 -103 -81 -36 7 -76 48 -76 78 0 20 75 128 89
128 3 0 11 -11 17 -24z m4738 -11 c9 -14 12 -25 7 -25 -5 0 -16 11 -25 25 -9
14 -12 25 -7 25 5 0 16 -11 25 -25z m101 -23 c10 -6 74 -93 87 -117 4 -6 -9
-11 -28 -12 -28 -1 -37 4 -54 33 -18 29 -25 32 -41 24 -19 -11 -18 -12 5 -47
23 -33 24 -37 9 -59 -8 -13 -16 -24 -18 -24 -9 0 -75 113 -75 128 0 27 36 70
63 75 36 7 42 7 52 -1z m-4825 -33 c-12 -16 -24 -28 -27 -25 -7 6 27 56 39 56
5 0 0 -14 -12 -31z m-132 -131 c-21 -30 -21 -31 -3 -45 17 -12 21 -10 40 19
17 28 25 33 52 30 l33 -3 -40 -59 c-43 -63 -64 -76 -102 -61 -26 10 -68 56
-68 74 0 6 19 39 42 74 l41 64 14 -31 c12 -29 11 -35 -9 -62z m4955 52 c10
-16 14 -30 10 -30 -5 0 -17 14 -26 30 -10 17 -14 30 -10 30 5 0 17 -13 26 -30z
m-4927 -66 c-10 -14 -20 -23 -23 -20 -3 3 2 17 11 32 10 14 20 23 23 20 3 -3
-2 -17 -11 -32z m5056 -1 c14 -21 33 -50 42 -65 l18 -28 -34 0 c-27 0 -37 6
-51 30 -19 32 -24 34 -45 21 -10 -6 -9 -15 7 -42 19 -33 19 -35 2 -57 l-17
-24 -37 60 c-31 50 -36 65 -28 85 13 34 49 57 87 57 25 0 36 -7 56 -37z
m-5168 -69 c16 -24 16 -27 -3 -59 -20 -34 -20 -35 -1 -45 16 -9 22 -6 35 20
13 25 22 30 50 30 l35 0 -38 -62 c-32 -53 -44 -63 -69 -66 -23 -2 -39 4 -62
25 -16 15 -31 35 -33 43 -2 11 61 140 68 140 1 0 9 -12 18 -26z m5134 -5 c7
-12 11 -24 8 -27 -6 -6 -35 27 -36 41 0 14 15 7 28 -14z m-5109 -63 c-7 -14
-16 -26 -21 -26 -5 0 -1 14 7 31 20 37 31 33 14 -5z m5207 26 c11 -7 74 -115
74 -126 0 -3 -14 -6 -30 -6 -25 0 -33 6 -47 35 -18 38 -21 39 -43 25 -13 -8
-13 -14 4 -45 19 -35 19 -36 0 -56 -20 -19 -20 -19 -54 44 -33 63 -34 65 -16
91 24 38 83 58 112 38z m-5307 -117 c7 -4 4 -20 -10 -47 -17 -33 -18 -42 -7
-49 20 -13 22 -12 42 26 15 27 25 35 48 35 15 0 28 -3 28 -7 0 -5 -15 -35 -33
-68 -28 -52 -36 -60 -64 -63 -41 -4 -69 11 -88 49 -15 29 -15 32 22 99 30 55
39 65 45 51 4 -11 11 -22 17 -26z m5296 5 c20 -39 5 -39 -17 0 -9 17 -13 30
-8 30 5 0 16 -13 25 -30z m-5280 -61 c-9 -17 -19 -29 -21 -26 -7 7 18 57 28
57 5 0 1 -14 -7 -31z m5371 23 c12 -8 33 -45 57 -104 l16 -38 -29 0 c-24 0
-33 7 -50 40 -14 27 -25 38 -35 34 -19 -7 -19 -13 -1 -55 13 -31 12 -36 -5
-58 l-19 -23 -30 66 c-17 36 -30 72 -30 80 0 38 92 81 126 58z m-18 -107 c14
-30 16 -54 4 -39 -15 17 -32 64 -23 64 4 0 13 -11 19 -25z m-5454 -63 c-24
-58 11 -75 38 -19 13 27 22 34 46 35 l30 1 -25 -57 c-14 -31 -30 -63 -36 -69
-13 -18 -68 -16 -95 3 -43 30 -45 48 -12 121 l31 68 19 -25 c17 -22 17 -28 4
-58z m26 -12 c-7 -17 -15 -28 -18 -26 -2 3 1 19 8 36 7 17 15 28 18 26 2 -3
-1 -19 -8 -36z m5528 18 c5 -7 22 -42 36 -77 l25 -63 -22 6 c-12 3 -27 6 -34
6 -6 0 -17 16 -23 35 -11 34 -32 46 -45 25 -3 -6 -1 -26 6 -45 12 -32 11 -37
-8 -56 l-20 -21 -27 67 c-28 71 -26 90 16 119 27 19 82 21 96 4z m-5622 -168
c-9 -22 -12 -40 -7 -40 5 0 16 -2 24 -5 9 -4 17 5 23 26 7 24 17 35 39 40 16
5 30 7 32 5 7 -7 -41 -122 -56 -133 -24 -21 -67 -15 -100 13 -17 14 -31 31
-31 37 0 6 12 42 26 79 l26 68 20 -25 c19 -24 19 -28 4 -65z m5592 65 c14 -31
15 -35 4 -35 -4 0 -13 14 -19 30 -14 36 -1 40 15 5z m-5559 -65 c-6 -16 -15
-30 -19 -30 -5 0 -4 14 1 30 6 17 15 30 19 30 5 0 4 -13 -1 -30z m5647 12 c11
-7 57 -133 50 -139 -2 -2 -15 -1 -29 2 -18 5 -30 17 -37 41 -12 34 -36 45 -46
21 -3 -8 0 -26 6 -42 9 -24 8 -32 -9 -49 -11 -11 -22 -18 -24 -15 -2 2 -14 33
-25 68 l-21 63 29 29 c28 29 80 39 106 21z m-22 -141 c-7 -8 -14 6 -19 40 l-5
34 14 -35 c7 -19 12 -37 10 -39z m-5708 -11 c-3 -14 -8 -35 -12 -47 -5 -18 -2
-23 13 -23 14 0 25 12 35 39 12 30 21 39 45 43 l31 4 -24 -70 c-14 -39 -28
-74 -33 -79 -5 -5 -26 -9 -46 -9 -28 0 -45 7 -66 29 l-28 28 20 60 c31 95 27
90 50 69 14 -13 19 -26 15 -44z m28 -12 c-10 -36 -26 -58 -20 -28 3 14 6 31 6
38 0 6 5 12 11 12 6 0 8 -9 3 -22z m5750 6 c15 -6 62 -141 53 -150 -3 -3 -16
-2 -29 1 -18 5 -29 17 -37 46 -11 36 -33 51 -45 30 -3 -4 -1 -23 4 -42 9 -29
7 -37 -13 -57 l-23 -23 -19 77 -20 76 28 24 c27 23 68 31 101 18z m-24 -113
c5 -18 5 -33 -1 -36 -5 -4 -9 -2 -9 3 0 5 -3 25 -6 43 -8 41 3 34 16 -10z
m-5816 -10 c13 -14 15 -28 10 -60 -6 -37 -5 -41 14 -41 16 0 23 8 27 34 6 28
12 35 36 38 16 3 29 3 29 1 0 -2 -7 -33 -16 -69 -14 -53 -22 -67 -42 -75 -34
-13 -75 -3 -101 25 -21 23 -21 23 -4 94 9 40 20 72 23 72 4 0 14 -8 24 -19z
m40 -59 c-4 -18 -11 -32 -15 -32 -9 0 -2 44 8 63 10 16 13 0 7 -31z m5852 10
c9 -6 44 -125 44 -151 0 -5 -12 -5 -30 2 -22 9 -31 20 -36 44 -7 36 -18 48
-39 40 -10 -4 -11 -15 -4 -44 7 -33 5 -40 -14 -55 -27 -20 -30 -15 -47 65 -11
56 -11 60 11 83 17 18 33 24 63 24 23 0 46 -4 52 -8z m-36 -111 c5 -17 5 -31
0 -31 -8 0 -20 34 -20 59 0 21 9 8 20 -28z m-5884 -68 c-5 -38 -3 -43 14 -43
13 0 22 9 26 28 10 47 12 49 39 54 l27 6 -7 -52 c-9 -68 -25 -98 -57 -108 -31
-11 -92 13 -102 38 -3 8 0 48 6 89 l12 75 24 -22 c20 -20 23 -29 18 -65z m25
-14 c-9 -23 -10 -23 -10 -2 -1 12 2 30 6 40 6 15 8 15 11 2 1 -8 -2 -26 -7
-40z m5913 27 c31 -13 34 -19 45 -78 15 -90 16 -88 -18 -75 -23 8 -30 19 -35
49 -5 30 -11 38 -27 38 -19 0 -21 -4 -15 -39 5 -34 3 -41 -19 -55 -24 -16 -24
-16 -31 22 -4 20 -8 55 -8 77 -1 36 2 42 34 57 42 21 33 21 74 4z m-21 -113
c4 -18 3 -33 -2 -33 -10 0 -21 57 -13 65 7 7 8 5 15 -32z m-5946 -70 c-4 -40
-3 -43 19 -43 21 0 24 5 24 38 0 33 3 38 33 47 l33 11 -13 -76 c-6 -41 -12
-76 -12 -76 -1 -1 -14 -7 -29 -13 -36 -15 -74 -6 -100 22 -18 20 -19 28 -9
100 l9 78 25 -23 c21 -19 24 -30 20 -65z m24 -20 c-9 -16 -10 -16 -11 4 0 12
3 30 7 40 7 16 8 16 11 -4 2 -12 -1 -30 -7 -40z m5978 33 c26 -14 29 -21 34
-88 3 -39 5 -74 3 -75 -2 -2 -15 2 -30 8 -21 10 -26 19 -26 49 0 43 -5 50 -31
43 -17 -5 -19 -11 -13 -49 5 -35 3 -44 -9 -44 -8 0 -21 -7 -28 -17 -12 -14
-15 -7 -20 58 -6 81 1 106 34 119 32 13 55 12 86 -4z m-30 -133 c1 -7 -3 -13
-9 -13 -5 0 -10 17 -9 38 1 33 2 34 9 12 4 -14 8 -31 9 -37z m-5989 -50 c0
-36 3 -43 20 -43 16 0 20 7 20 38 0 33 4 39 31 49 l32 12 -7 -72 c-7 -82 -19
-97 -76 -97 -73 0 -89 31 -74 143 l7 46 23 -17 c18 -13 23 -27 24 -59z m21
-26 c-13 -13 -14 5 -3 43 l7 25 3 -29 c2 -16 -1 -33 -7 -39z m6023 30 c13 -9
19 -33 23 -90 l6 -77 -32 16 c-27 13 -31 21 -31 55 0 32 -3 39 -20 39 -17 0
-20 -7 -20 -39 0 -30 -5 -42 -24 -54 -23 -16 -24 -15 -30 15 -13 66 -7 116 16
132 27 19 88 21 112 3z m-44 -102 c0 -19 -4 -35 -10 -35 -5 0 -10 16 -10 35 0
19 5 35 10 35 6 0 10 -16 10 -35z m-6010 -72 c0 -36 3 -43 20 -43 17 0 20 7
20 38 0 32 5 41 25 50 14 7 28 12 30 12 3 0 5 -31 5 -69 0 -61 -3 -72 -22 -85
-30 -21 -88 -20 -117 3 -22 17 -23 22 -16 89 7 70 7 71 31 60 20 -9 24 -18 24
-55z m30 0 c0 -26 -3 -34 -11 -26 -9 9 -3 63 7 63 2 0 4 -17 4 -37z m6028 1
c20 -13 22 -23 22 -89 l0 -76 -30 16 c-26 13 -30 21 -30 55 0 33 -3 40 -20 40
-16 0 -20 -7 -20 -37 0 -32 -5 -41 -31 -56 -27 -15 -31 -15 -25 -1 3 8 6 45 6
80 0 64 1 65 33 79 34 15 58 12 95 -11z m-52 -132 c-13 -12 -17 8 -10 40 l9
33 3 -33 c2 -19 1 -36 -2 -40z m-6023 12 c13 -5 17 -17 17 -50 0 -41 2 -44 26
-44 24 0 25 2 19 39 -6 37 -4 41 24 56 l31 16 0 -80 c0 -79 -1 -81 -30 -96
-36 -19 -53 -19 -90 0 -27 14 -29 18 -32 95 -2 51 1 78 7 75 6 -3 18 -8 28
-11z m44 -66 c-2 -13 -4 -5 -4 17 -1 22 1 32 4 23 2 -10 2 -28 0 -40z m6022
21 c32 -19 33 -22 27 -66 -3 -25 -6 -61 -6 -80 0 -33 0 -33 -25 -17 -20 13
-25 24 -25 60 0 37 -3 44 -19 44 -15 0 -21 -10 -26 -39 -4 -28 -13 -42 -31
-50 -14 -6 -26 -11 -27 -11 -8 0 7 138 16 149 28 34 71 38 116 10z m-47 -104
c-2 -19 -6 -35 -8 -35 -2 0 -4 16 -4 35 0 19 4 35 8 35 4 0 6 -16 4 -35z
m-6018 -26 c19 -9 26 -21 28 -48 2 -29 7 -37 27 -39 22 -3 23 -1 16 36 -6 35
-4 42 15 52 12 7 26 8 30 3 4 -4 11 -44 14 -88 3 -44 10 -100 16 -125 14 -66
12 -77 -12 -100 -25 -23 -85 -27 -111 -7 -13 9 -36 104 -37 149 0 3 13 1 29
-5 23 -8 30 -19 35 -49 5 -30 11 -38 27 -38 19 0 21 4 15 44 -6 39 -5 45 14
51 11 3 20 10 20 15 0 5 -17 2 -38 -7 -34 -13 -43 -13 -75 1 -35 14 -37 18
-37 59 0 25 -3 59 -6 76 -7 35 -5 36 30 20z m55 -46 c-1 -34 -2 -35 -9 -13
-11 36 -11 50 0 50 6 0 10 -17 9 -37z m5999 1 c24 -16 27 -44 16 -127 l-7 -46
-23 17 c-18 13 -23 27 -24 60 0 35 -3 42 -20 42 -16 0 -20 -7 -20 -35 0 -29
-5 -37 -26 -45 -14 -6 -28 -10 -31 -10 -13 0 9 136 25 148 22 17 83 15 110 -4z
m-57 -115 c-10 -23 -10 -23 -10 7 -1 17 2 34 7 38 11 12 14 -18 3 -45z m-5919
-49 c3 -16 1 -30 -4 -30 -4 0 -8 6 -8 14 0 8 -3 21 -6 30 -3 9 -2 16 4 16 5 0
12 -13 14 -30z m5960 -7 c17 -15 19 -26 14 -73 -4 -30 -9 -64 -12 -77 -6 -22
-7 -22 -30 -5 -20 15 -23 23 -18 58 5 36 3 42 -14 46 -17 5 -22 0 -27 -31 -5
-29 -12 -39 -36 -48 -33 -13 -33 -15 -18 63 14 73 39 98 88 90 18 -3 42 -13
53 -23z m-60 -98 c-2 -19 -9 -35 -14 -35 -6 0 -8 10 -4 23 3 12 6 28 6 35 0 6
4 12 8 12 4 0 6 -16 4 -35z m-5803 -52 c15 -77 14 -90 -9 -113 -21 -21 -83
-27 -110 -10 -8 5 -22 43 -30 84 l-16 75 25 -6 c38 -9 38 -9 45 -53 5 -32 10
-40 27 -40 20 0 21 4 15 41 -5 32 -3 46 10 60 10 11 20 19 24 19 4 0 12 -26
19 -57z m-67 -13 c3 -17 1 -33 -4 -36 -4 -3 -8 -1 -8 4 0 5 -3 24 -7 42 -4 22
-3 31 4 27 6 -4 13 -21 15 -37z m5895 -4 l27 -24 -18 -76 -18 -76 -24 18 c-24
17 -24 19 -8 88 6 23 4 25 -17 22 -18 -2 -25 -12 -32 -39 -7 -29 -14 -38 -35
-42 -15 -3 -28 -4 -29 -3 -7 7 33 133 45 144 26 20 78 14 109 -12z m-65 -107
c-4 -18 -11 -29 -14 -24 -3 6 -1 26 5 45 12 44 21 24 9 -21z m-5720 -55 c10
-41 12 -67 6 -79 -14 -24 -68 -44 -101 -38 -31 6 -39 18 -55 84 -7 26 -14 53
-18 62 -5 14 -1 14 29 5 29 -9 36 -17 42 -44 4 -26 11 -34 26 -34 19 0 20 4
14 41 -6 32 -3 44 12 59 23 23 27 18 45 -56z m-72 -3 c5 -17 5 -31 0 -31 -8 0
-20 34 -20 59 0 21 9 8 20 -28z m5808 2 c34 -21 35 -34 11 -113 l-21 -71 -23
21 c-22 21 -23 24 -10 60 15 41 12 50 -16 50 -13 0 -20 -10 -25 -35 -4 -25
-12 -35 -24 -35 -10 0 -25 -3 -33 -6 -12 -4 -11 8 6 65 17 57 26 72 46 80 29
10 55 6 89 -16z m-62 -104 c-8 -19 -15 -29 -15 -22 -1 18 19 67 25 61 3 -3 -2
-21 -10 -39z m-5624 -139 c-24 -32 -74 -47 -106 -32 -17 8 -30 29 -46 77 -12
36 -20 68 -19 70 2 2 16 1 31 -2 22 -4 30 -14 40 -44 12 -41 15 -44 37 -30 11
7 11 15 1 45 -11 34 -10 38 12 55 l23 19 23 -66 c22 -66 22 -67 4 -92z m-74
83 c6 -18 7 -33 2 -33 -10 0 -30 56 -23 64 8 8 8 8 21 -31z m5716 -9 c31 -32
31 -30 8 -91 -11 -26 -22 -56 -26 -67 -6 -17 -8 -16 -26 7 -17 21 -18 30 -10
53 6 15 9 33 6 41 -10 24 -34 13 -46 -21 -8 -26 -17 -35 -40 -38 -17 -3 -30
-2 -30 1 0 13 42 117 52 129 19 22 83 15 112 -14z m-67 -94 c-6 -17 -15 -30
-20 -30 -5 0 -6 8 -2 18 4 9 10 25 12 34 3 10 9 16 13 13 5 -3 3 -19 -3 -35z
m-5522 -45 c22 -57 24 -73 15 -91 -22 -39 -104 -60 -128 -31 -6 6 -21 41 -35
77 l-24 66 32 -4 c28 -3 34 -9 44 -43 11 -37 33 -51 46 -29 4 6 1 26 -5 45
-10 29 -9 38 7 59 10 13 19 23 20 22 1 -1 14 -33 28 -71z m-68 -15 c6 -16 8
-30 3 -30 -4 0 -13 14 -19 30 -5 17 -7 30 -3 30 4 0 13 -13 19 -30z m5580 11
c42 -26 47 -49 22 -107 -11 -27 -25 -60 -30 -73 l-10 -25 -18 30 c-16 25 -16
33 -4 61 17 41 16 50 -3 57 -11 4 -20 -5 -32 -34 -15 -35 -21 -40 -49 -40
l-32 0 31 70 c37 84 65 97 125 61z m-49 -98 c-15 -34 -28 -51 -28 -35 0 18 22
62 31 62 5 0 3 -12 -3 -27z m-5396 -54 c25 -56 26 -64 13 -89 -16 -31 -65 -53
-101 -44 -16 4 -32 25 -54 71 -16 36 -30 67 -30 69 0 2 14 2 32 0 25 -2 34
-10 45 -38 11 -28 19 -35 34 -31 23 6 24 15 4 53 -14 27 -14 31 2 50 10 11 20
20 23 20 3 0 17 -28 32 -61z m-62 -38 c-1 -13 -4 -12 -15 3 -8 11 -15 27 -15
35 1 13 4 12 15 -3 8 -11 15 -27 15 -35z m5431 39 c10 -6 26 -24 34 -40 15
-28 14 -33 -18 -97 l-34 -67 -18 28 c-17 26 -17 29 -1 63 14 29 15 38 4 44
-20 13 -23 11 -41 -26 -14 -28 -22 -35 -46 -35 l-30 0 25 58 c14 31 33 63 42
70 19 15 56 16 83 2z m-5296 -144 c37 -67 38 -95 2 -124 -19 -16 -78 -25 -93
-15 -12 8 -74 115 -74 126 0 4 13 7 28 7 23 0 33 -8 48 -35 20 -38 22 -39 42
-26 12 7 11 14 -3 41 -14 27 -15 37 -5 61 7 16 14 29 16 29 2 0 19 -29 39 -64z
m5244 30 c-7 -14 -16 -26 -21 -26 -5 0 -1 14 7 31 20 37 31 33 14 -5z m-5310
-52 c17 -38 6 -42 -14 -5 -8 17 -12 31 -7 31 5 0 14 -12 21 -26z m5274 15 c27
-14 56 -49 57 -67 0 -8 -16 -43 -36 -79 l-37 -65 -14 30 c-13 27 -13 34 2 62
15 28 15 34 2 47 -12 13 -17 10 -35 -19 -16 -26 -28 -33 -52 -33 -16 0 -30 1
-30 2 0 1 14 26 31 55 45 77 66 90 112 67z m-5093 -216 c0 -41 -59 -81 -106
-71 -15 3 -91 110 -93 131 -1 4 12 7 28 7 23 0 34 -8 51 -35 23 -38 30 -41 47
-24 8 8 6 20 -9 44 -18 32 -18 35 -2 60 l17 26 33 -58 c18 -32 34 -68 34 -80z
m5050 98 c-6 -12 -15 -21 -21 -21 -6 0 -2 14 8 30 19 33 31 24 13 -9z m-5145
-51 c9 -16 12 -30 7 -30 -4 0 -16 14 -25 30 -10 17 -13 30 -8 30 6 0 17 -13
26 -30z m5128 5 c38 -39 37 -55 -8 -123 l-42 -63 -17 26 c-17 25 -16 27 8 60
23 30 24 34 10 46 -14 11 -20 9 -43 -19 -19 -24 -34 -32 -58 -32 l-32 0 45 65
c40 58 49 65 78 65 22 0 42 -8 59 -25z m-4969 -123 c36 -49 37 -55 26 -83 -14
-33 -55 -59 -93 -59 -19 0 -34 14 -66 63 l-41 62 32 3 c19 2 34 -2 39 -10 26
-44 37 -52 53 -39 15 12 14 16 -4 46 -17 27 -18 36 -7 58 6 14 15 23 18 19 3
-4 23 -31 43 -60z m4896 27 c-12 -16 -24 -28 -27 -25 -7 6 27 56 39 56 5 0 0
-14 -12 -31z m-4950 -71 c0 -13 -12 -9 -26 10 -7 9 -13 24 -13 32 -1 10 6 6
19 -10 11 -14 20 -28 20 -32z m4914 31 c51 -40 51 -63 5 -130 -23 -32 -45 -59
-48 -59 -3 0 -11 11 -17 25 -10 20 -8 29 12 57 22 29 23 34 8 48 -14 13 -17
13 -30 -5 -9 -11 -19 -26 -23 -33 -4 -8 -18 -10 -39 -6 l-31 6 45 59 c50 66
73 73 118 38z m-4761 -120 c41 -51 42 -57 26 -93 -12 -24 -63 -56 -91 -56 -12
0 -108 110 -108 124 0 2 14 6 30 8 25 4 35 -1 56 -30 23 -30 28 -32 41 -19 13
13 13 18 -8 46 -20 27 -21 34 -10 57 6 15 15 23 20 18 4 -5 24 -30 44 -55z
m4717 44 c-1 -14 -40 -56 -46 -50 -3 3 2 17 13 31 18 25 33 34 33 19z m-4786
-68 c9 -13 16 -27 16 -31 0 -10 -30 17 -41 38 -15 27 6 22 25 -7z m4741 -1
c14 -15 25 -38 25 -52 0 -23 -73 -122 -90 -122 -20 0 -20 51 1 79 36 49 5 71
-35 25 -19 -23 -26 -26 -50 -18 l-27 9 42 53 c36 44 48 52 76 52 24 0 41 -8
58 -26z m-76 -90 c-12 -13 -24 -22 -27 -20 -7 8 32 54 41 49 5 -3 -2 -16 -14
-29z m-590 -102 l53 -48 -53 -40 -54 -41 -82 77 -83 77 48 40 47 40 35 -28
c19 -16 59 -50 89 -77z m559 62 c35 -40 28 -72 -28 -132 l-50 -53 -10 26 c-11
29 -8 38 23 73 19 20 19 24 5 38 -14 14 -18 12 -41 -15 -23 -28 -29 -30 -53
-21 l-27 11 24 27 c74 84 73 84 104 78 17 -3 40 -17 53 -32z m-4508 -27 c0 -6
-11 0 -25 13 -14 13 -25 28 -25 33 0 6 11 0 25 -13 14 -13 25 -28 25 -33z
m698 15 l33 -25 -33 -34 c-18 -19 -53 -52 -78 -73 l-45 -38 -44 37 -44 38 79
66 c43 36 83 63 89 60 5 -4 25 -18 43 -31z m-497 -124 c12 -23 -12 -82 -39
-97 -41 -22 -66 -12 -121 43 l-53 53 34 6 c26 4 39 0 60 -21 23 -21 30 -23 43
-12 14 12 13 16 -10 40 -20 21 -24 32 -19 59 l7 32 44 -43 c25 -24 49 -51 54
-60z m4228 55 c-13 -16 -25 -30 -26 -32 -2 -2 -6 -1 -10 2 -8 8 36 57 50 57 6
0 0 -12 -14 -27z m-45 -44 c38 -45 33 -67 -28 -128 l-53 -53 -6 34 c-4 26 -1
37 19 55 43 40 20 69 -27 34 -20 -15 -36 -20 -55 -15 l-26 7 48 48 c59 60 90
64 128 18z m-4269 -27 c-7 -7 -45 29 -45 41 0 6 11 0 25 -13 14 -13 23 -26 20
-28z m3759 -43 l75 -82 -115 -66 c-64 -36 -142 -87 -173 -113 -158 -133 -400
-270 -583 -332 -347 -117 -641 -159 -978 -138 -254 16 -282 20 -445 58 -301
71 -448 123 -594 209 -72 42 -118 77 -341 252 -50 40 -120 86 -155 103 l-64
31 72 68 72 69 48 -19 c58 -23 135 -72 237 -149 211 -160 369 -232 679 -309
312 -78 299 -76 606 -76 247 1 294 4 400 24 195 36 338 77 480 135 141 59 230
113 425 257 101 74 242 159 267 159 6 0 45 -37 87 -81z m269 -47 c17 -19 16
-21 -34 -66 -28 -25 -54 -46 -58 -46 -9 0 -141 135 -141 144 0 3 23 23 52 45
l52 39 56 -48 c30 -26 63 -57 73 -68z m-3635 76 c23 -18 42 -35 42 -38 0 -6
-108 -105 -157 -143 -23 -19 -24 -18 -73 19 -28 21 -47 41 -42 45 35 33 177
149 182 149 4 0 25 -14 48 -32z m-199 -66 c2 -1 -15 -19 -39 -40 -78 -66 -73
-65 -116 -28 l-39 34 28 11 c25 10 33 8 59 -15 28 -22 33 -24 46 -10 13 13 12
18 -16 40 -28 24 -29 29 -19 56 l11 30 41 -38 c22 -20 42 -38 44 -40z m3999
24 c-30 -29 -46 -21 -17 10 12 13 26 21 31 18 5 -3 -1 -16 -14 -28z m-44 -25
c20 -21 28 -96 10 -96 -5 0 -34 21 -64 47 -47 41 -52 49 -40 63 17 21 66 13
94 -14z m-4024 -33 c0 -5 -3 -8 -7 -8 -10 0 -43 32 -43 42 0 11 49 -24 50 -34z
m4051 -119 c60 -56 109 -105 109 -111 0 -16 -273 -281 -376 -365 -117 -95
-206 -153 -232 -153 -31 0 -72 45 -72 80 0 64 140 173 330 255 95 42 140 93
140 161 0 41 -4 48 -56 96 l-55 52 43 43 c24 23 47 42 52 43 4 0 57 -46 117
-101z m-3756 61 c67 -30 118 -66 255 -179 277 -228 479 -318 908 -407 119 -25
253 -36 487 -41 279 -6 431 7 635 58 366 89 540 171 845 394 178 131 267 185
302 185 10 0 53 -30 96 -67 l77 -67 -47 -29 c-27 -17 -113 -80 -193 -142 -250
-193 -353 -253 -620 -360 -660 -265 -1553 -253 -2175 30 -27 13 -75 34 -105
48 -153 67 -363 205 -489 320 -114 105 -141 125 -174 129 -28 3 -28 3 35 65
67 67 100 93 108 88 3 -1 28 -13 55 -25z m-264 -13 c62 -48 72 -59 64 -65 -6
-4 -27 -26 -47 -50 -40 -45 -49 -91 -27 -135 16 -32 81 -97 96 -97 7 0 61 -21
120 -47 288 -125 377 -225 258 -289 -31 -17 -34 -16 -79 5 -97 48 -342 236
-538 414 -49 44 -88 83 -88 86 0 9 209 191 218 191 4 0 14 -6 23 -13z"/>
<path d="M4426 5899 c-66 -44 -72 -119 -16 -179 23 -25 36 -30 75 -30 40 0 52
5 81 34 29 29 34 41 34 80 0 79 -29 115 -97 121 -24 1 -47 -6 -77 -26z m100
-44 c21 -51 15 -104 -14 -123 -22 -14 -25 -14 -45 7 -17 17 -22 33 -22 77 0
38 5 58 15 64 30 19 51 11 66 -25z"/>
<path d="M4203 5907 c-45 -10 -53 -20 -28 -34 8 -5 18 -24 21 -43 l7 -34 -39
31 c-21 17 -47 40 -57 50 -15 18 -22 19 -57 9 -43 -11 -52 -25 -20 -33 14 -4
21 -17 25 -52 3 -25 8 -63 11 -83 4 -24 2 -38 -5 -38 -6 0 -11 -4 -11 -10 0
-15 76 -12 89 4 10 11 9 16 -4 23 -10 6 -19 28 -22 54 l-5 44 60 -59 c43 -42
65 -57 77 -52 12 4 15 13 12 29 -15 63 -19 158 -7 172 20 24 0 33 -47 22z"/>
<path d="M4731 5907 c-7 -7 -7 -14 0 -23 16 -19 0 -174 -17 -174 -8 0 -14 -6
-14 -14 0 -14 60 -26 136 -26 46 0 64 17 64 59 0 27 -7 26 -29 0 -14 -18 -23
-20 -50 -14 l-34 7 7 67 c5 48 12 70 26 81 11 8 16 20 12 26 -10 16 -88 24
-101 11z"/>
<path d="M3870 5853 c-8 -3 -26 -10 -39 -15 -22 -8 -22 -10 -8 -26 10 -11 13
-22 7 -32 -12 -20 -40 5 -33 30 6 24 4 24 -64 3 -54 -17 -72 -43 -29 -43 24 0
86 -44 86 -60 0 -5 -5 -21 -12 -37 -6 -15 -12 -32 -12 -36 -1 -5 -9 -14 -18
-21 -32 -23 -22 -39 20 -31 48 9 66 23 51 41 -6 7 -8 22 -4 33 5 18 9 19 26 8
10 -6 17 -18 14 -26 -9 -23 13 -29 61 -18 32 8 44 15 44 29 0 10 -6 18 -13 18
-21 0 -87 60 -87 79 0 10 11 35 25 55 35 52 31 66 -15 49z"/>
<path d="M5085 5849 c-38 -11 -83 -52 -91 -84 -8 -34 3 -85 25 -114 26 -34
103 -40 149 -12 36 23 52 55 52 108 0 80 -58 124 -135 102z m61 -55 c14 -21
15 -31 6 -61 -6 -20 -9 -40 -7 -44 8 -12 -23 -31 -47 -27 -33 4 -50 45 -37 91
18 67 56 86 85 41z"/>
<path d="M5404 5750 c-81 -35 -119 -120 -78 -178 20 -29 85 -62 122 -62 33 0
47 13 57 51 4 15 16 31 27 36 18 8 19 11 6 24 -13 13 -14 18 -2 34 17 23 19
79 3 69 -6 -3 -14 -2 -18 4 -4 6 -22 18 -41 25 -31 13 -39 13 -76 -3z m67 -42
c8 -7 21 -26 27 -42 12 -26 11 -28 -5 -21 -20 7 -23 8 -40 6 -16 -1 -17 -28
-2 -33 9 -3 -2 -45 -18 -67 -2 -3 -14 6 -28 19 -41 39 -31 120 18 140 30 12
31 12 48 -2z"/>
<path d="M3478 5728 c-81 -32 -92 -42 -59 -53 12 -4 28 -27 40 -60 31 -82 35
-105 20 -105 -10 0 -10 -3 -2 -11 8 -8 29 -5 80 11 85 28 93 35 93 75 0 44
-26 55 -35 14 -4 -19 -16 -34 -32 -40 -32 -12 -30 -13 -41 20 -8 24 -7 31 5
35 9 4 21 2 28 -4 21 -18 37 12 25 45 -6 16 -10 35 -8 44 3 25 -12 61 -25 60
-7 0 -47 -14 -89 -31z m78 -34 c-3 -9 -6 -22 -6 -30 0 -22 -38 -16 -45 7 -8
23 8 39 39 39 12 0 16 -5 12 -16z"/>
<path d="M5681 5651 c-9 -6 -10 -14 -3 -27 8 -15 3 -32 -19 -74 -16 -30 -29
-61 -29 -69 0 -8 -7 -11 -20 -8 -44 11 -32 -22 17 -47 47 -24 67 -21 59 8 -9
36 48 156 74 156 34 0 22 28 -20 50 -45 23 -41 22 -59 11z"/>
<path d="M3286 5642 c-2 -4 -36 -21 -75 -37 -71 -30 -80 -40 -61 -76 14 -26
38 -24 42 3 6 40 23 28 60 -42 20 -39 33 -70 28 -70 -6 0 -10 -7 -10 -15 0
-20 21 -19 65 2 21 10 35 24 35 35 0 10 -5 15 -12 13 -14 -5 -93 133 -83 144
3 3 15 0 25 -7 25 -15 27 -15 34 4 12 31 -31 73 -48 46z"/>
<path d="M5821 5543 c12 -55 11 -137 -3 -151 -7 -7 -20 -12 -30 -12 -32 0 -20
-35 17 -53 48 -23 68 -22 60 2 -11 35 15 68 75 95 32 14 65 26 74 26 26 0 18
24 -13 42 -34 19 -78 14 -61 -8 9 -9 6 -15 -9 -23 -11 -6 -24 -11 -30 -11 -17
0 -13 57 4 64 8 3 15 10 15 16 0 15 -61 50 -86 50 -20 0 -21 -3 -13 -37z"/>
<path d="M2878 5402 c-69 -50 -76 -57 -66 -76 22 -41 48 -47 48 -12 0 14 4 27
9 30 10 7 91 -97 91 -117 0 -30 22 -36 56 -14 36 24 55 62 25 52 -12 -4 -28
11 -59 54 -48 69 -52 86 -18 77 16 -4 26 -1 29 8 6 14 -19 57 -31 55 -4 0 -42
-26 -84 -57z"/>
<path d="M6080 5317 c-47 -27 -95 -49 -107 -49 -31 -1 -29 -28 3 -51 27 -20
57 -16 48 7 -9 22 15 29 41 12 28 -18 33 -46 10 -46 -25 0 -17 -35 15 -58 39
-29 64 -29 57 0 -5 17 17 134 39 209 9 32 -22 25 -106 -24z m30 -37 c0 -5 -5
-10 -11 -10 -5 0 -7 5 -4 10 3 6 8 10 11 10 2 0 4 -4 4 -10z"/>
<path d="M2680 5224 c-8 -3 -22 -8 -30 -11 -8 -4 -18 -5 -23 -5 -4 1 -12 -9
-17 -22 -5 -13 -14 -27 -19 -31 -6 -3 -11 -20 -11 -36 0 -96 108 -160 184
-110 70 46 74 135 9 193 -21 19 -69 30 -93 22z m44 -74 c76 -67 39 -152 -38
-88 -49 40 -62 74 -40 99 23 26 38 24 78 -11z"/>
<path d="M6344 5186 c5 -20 -4 -35 -45 -80 -36 -40 -55 -54 -63 -47 -16 13
-40 -3 -33 -22 3 -8 33 -38 67 -66 l61 -51 30 17 c32 19 33 21 19 43 -6 10
-10 11 -10 3 0 -21 -22 -15 -52 14 l-28 27 51 52 c29 30 58 50 65 47 28 -11
27 28 -2 58 -35 37 -69 40 -60 5z"/>
<path d="M2419 4972 c-39 -25 -99 -93 -93 -103 3 -5 13 -9 22 -9 9 0 42 -20
74 -45 43 -35 55 -50 51 -65 -9 -33 29 -24 60 14 33 42 35 58 5 51 -16 -4 -27
0 -34 13 -11 17 -9 18 40 14 44 -3 54 -1 74 21 20 21 21 25 7 37 -10 8 -15 9
-15 1 0 -12 -41 -14 -77 -5 -17 5 -23 14 -23 35 0 17 -8 34 -22 43 -28 20 -37
20 -69 -2z m32 -70 c10 -25 2 -27 -25 -7 -10 7 -15 19 -11 25 10 16 27 8 36
-18z"/>
<path d="M6626 4922 c-13 -12 -191 -60 -194 -52 -4 10 -42 0 -42 -10 0 -15 42
-60 57 -60 8 0 17 9 20 20 7 26 15 25 43 -5 19 -20 21 -27 10 -40 -7 -8 -19
-15 -26 -15 -19 0 -18 -6 12 -45 25 -34 54 -38 54 -8 0 8 20 54 45 102 25 48
45 92 45 98 0 15 -15 24 -24 15z"/>
<path d="M2212 4713 c-18 -8 -30 -18 -28 -21 3 -2 -1 -11 -9 -19 -8 -8 -15
-32 -15 -52 0 -108 150 -162 215 -77 28 37 31 71 11 121 -25 60 -105 82 -174
48z m71 -44 c59 -31 85 -82 54 -107 -26 -22 -98 12 -122 57 -25 49 14 77 68
50z"/>
<path d="M6770 4701 c0 -26 -126 -109 -142 -93 -36 36 -37 -10 -2 -61 21 -31
28 -36 40 -26 8 6 14 17 14 25 0 13 18 29 26 22 2 -3 -5 -24 -17 -47 -20 -41
-20 -43 -2 -69 26 -39 53 -38 52 2 -1 17 3 43 9 57 9 22 15 25 42 21 71 -10
91 59 39 140 -32 49 -59 63 -59 29z m38 -94 c4 -21 -25 -34 -40 -19 -8 8 -8
16 2 27 16 19 34 15 38 -8z"/>
<path d="M2068 4443 c-15 -8 -44 -41 -63 -75 -37 -63 -40 -98 -8 -79 24 13
148 -50 156 -79 3 -14 10 -19 17 -15 19 12 70 127 70 157 0 35 -37 71 -66 64
-13 -4 -27 0 -35 10 -22 26 -43 31 -71 17z m28 -68 c4 -8 4 -22 0 -30 -4 -12
-10 -13 -31 -3 -28 13 -30 19 -13 36 16 16 37 15 44 -3z m94 -56 c0 -24 -16
-32 -40 -19 -25 13 -26 36 -3 49 22 12 43 -3 43 -30z"/>
<path d="M6941 4440 c-8 -4 -11 -13 -7 -19 4 -6 -22 -25 -64 -46 -55 -28 -75
-33 -90 -25 -11 6 -21 6 -25 1 -8 -15 24 -89 42 -96 17 -6 36 13 27 27 -8 13
117 70 143 65 32 -6 37 10 18 55 -17 42 -26 50 -44 38z"/>
<path d="M7057 4193 c-4 -3 -7 -14 -7 -24 0 -12 -18 -23 -62 -39 -35 -11 -70
-26 -79 -33 -57 -44 -6 -157 70 -157 10 0 44 9 75 20 41 14 63 17 76 10 25
-13 30 6 15 50 -14 41 -42 52 -47 19 -2 -17 -16 -27 -57 -41 -64 -21 -88 -17
-97 19 -8 31 8 45 78 69 37 12 52 13 63 4 22 -18 28 22 9 69 -16 40 -24 48
-37 34z"/>
<path d="M1916 4172 c-8 -10 -19 -33 -22 -50 -6 -28 -4 -32 14 -32 26 0 38
-18 23 -33 -8 -8 -14 -6 -24 7 -12 17 -13 16 -28 -1 -21 -24 -41 -85 -31 -95
4 -4 31 4 59 19 29 14 59 23 67 20 17 -7 56 -78 56 -102 0 -30 33 -11 45 26
13 37 6 67 -13 55 -10 -6 -32 22 -32 38 0 11 48 6 52 -6 7 -20 26 0 41 46 18
53 8 80 -20 49 -14 -16 -104 -49 -108 -40 -1 1 -11 19 -23 40 -12 21 -22 44
-22 52 0 23 -16 26 -34 7z"/>
<path d="M7154 3855 c-3 -8 -3 -18 0 -24 4 -5 -25 -17 -65 -26 -63 -14 -74
-14 -88 -1 -23 20 -39 -1 -33 -42 6 -42 19 -49 43 -23 11 12 28 21 39 21 10 0
25 3 34 6 27 10 18 -10 -35 -75 -64 -79 -57 -90 41 -67 85 19 120 20 120 5 0
-8 4 -8 15 1 17 14 10 67 -11 90 -12 12 -14 11 -14 -8 0 -24 -38 -45 -71 -40
-15 2 -10 13 27 62 42 57 51 86 38 120 -8 20 -33 21 -40 1z"/>
<path d="M2003 3805 c-5 -9 -41 -21 -93 -30 -124 -23 -130 -24 -130 -38 1 -6
37 -39 81 -71 45 -33 83 -65 86 -73 8 -21 40 -15 47 10 14 54 4 81 -22 55 -19
-19 -35 5 -27 41 7 32 23 39 43 19 17 -17 33 2 39 49 6 42 -9 65 -24 38z m-98
-95 c3 -5 1 -10 -4 -10 -6 0 -11 5 -11 10 0 6 2 10 4 10 3 0 8 -4 11 -10z"/>
<path d="M7230 3509 c-8 -5 -11 -9 -5 -9 5 0 5 -4 -1 -10 -6 -6 -42 -13 -81
-15 -54 -4 -74 -1 -83 10 -20 24 -38 -3 -32 -50 6 -50 19 -66 36 -43 16 22
149 36 171 18 26 -21 39 2 31 54 -8 50 -15 59 -36 45z"/>
<path d="M1758 3429 c-24 -9 -27 -16 -34 -86 -7 -84 0 -106 36 -111 33 -5 47
13 27 36 -9 10 -17 22 -17 27 0 4 32 5 71 3 53 -4 74 -10 81 -22 16 -28 38 0
38 49 0 23 -3 44 -6 48 -9 8 -35 -4 -29 -13 3 -5 -29 -8 -72 -6 -84 3 -99 15
-62 45 12 10 19 23 15 29 -8 14 -12 14 -48 1z"/>
<path d="M7246 3322 c-4 -11 -45 -37 -107 -67 -55 -26 -98 -53 -96 -58 2 -6
45 -28 96 -49 52 -21 99 -43 107 -49 21 -17 34 -1 34 42 0 39 -7 48 -26 29 -7
-7 -26 -4 -58 11 l-49 21 43 19 c32 14 46 16 56 8 21 -18 34 -1 34 45 0 49
-24 82 -34 48z"/>
<path d="M1723 3122 c-11 -18 -10 -40 3 -81 4 -11 7 -11 22 1 19 17 80 29 87
17 3 -4 -21 -31 -53 -60 -50 -47 -57 -58 -52 -83 6 -35 29 -46 36 -18 5 16 17
20 77 25 58 4 74 2 84 -10 10 -13 15 -14 28 -3 11 9 14 22 9 49 -9 48 -13 53
-28 38 -8 -6 -12 -15 -10 -18 4 -7 -78 -20 -85 -13 -3 2 23 33 57 67 71 72 70
88 -6 76 -86 -14 -128 -11 -143 11 -14 20 -14 20 -26 2z"/>
<path d="M7040 2990 c-6 -23 -10 -66 -8 -98 3 -52 5 -57 31 -67 23 -7 31 -6
41 6 12 17 71 15 82 -2 8 -14 64 -11 69 4 3 6 9 44 14 82 7 53 6 73 -4 84 -11
11 -14 10 -20 -8 -4 -14 -12 -20 -23 -17 -9 3 -43 10 -75 15 -32 6 -65 17 -73
26 -21 21 -22 20 -34 -25z m98 -84 c0 -13 -8 -27 -17 -30 -9 -3 -21 -8 -27
-11 -15 -7 -26 22 -19 46 4 13 16 19 34 19 23 0 29 -4 29 -24z m84 -16 c6 -37
-8 -49 -27 -24 -21 27 -19 54 4 54 13 0 20 -9 23 -30z"/>
<path d="M1914 2819 c-3 -5 -10 -7 -15 -4 -5 4 -9 -3 -9 -13 0 -23 -55 -39
-75 -22 -9 7 -21 7 -39 -1 -29 -14 -32 -31 -15 -111 13 -63 25 -80 42 -57 7
10 42 22 85 29 63 12 75 11 82 -1 7 -11 12 -11 21 -2 10 10 9 30 -2 94 -13 77
-16 83 -41 90 -16 4 -30 3 -34 -2z m29 -85 c2 -25 -2 -29 -25 -32 -24 -3 -28
0 -28 21 0 14 7 30 15 37 8 7 12 17 8 24 -3 6 2 4 11 -5 9 -8 18 -29 19 -45z
m-109 0 c24 -23 20 -44 -9 -44 -21 0 -25 5 -25 30 0 33 11 38 34 14z"/>
<path d="M7011 2728 c-5 -13 -12 -38 -16 -55 -6 -29 -4 -33 13 -33 11 0 22 6
24 12 4 10 10 10 29 1 23 -11 23 -12 -28 -35 -57 -25 -75 -57 -48 -84 13 -14
16 -14 21 1 4 9 23 25 44 35 32 16 39 17 44 5 2 -7 17 -21 31 -31 33 -21 67
-8 89 34 19 37 32 132 18 132 -5 0 -12 -6 -15 -13 -4 -11 -20 -10 -84 6 -43
11 -82 26 -86 33 -12 21 -26 17 -36 -8z m160 -99 c16 -8 18 -13 8 -25 -10 -13
-14 -12 -30 2 -34 30 -19 45 22 23z"/>
<path d="M1990 2525 c0 -14 -11 -48 -25 -76 l-26 -50 -28 21 c-16 11 -33 20
-38 20 -5 0 -17 10 -27 22 -19 22 -19 22 -28 2 -13 -28 17 -103 33 -87 12 12
59 -3 59 -19 0 -12 -24 -10 -38 4 -20 20 -34 -5 -27 -45 10 -51 32 -67 53 -40
22 26 136 65 150 51 6 -6 18 -8 27 -4 18 7 16 28 -7 83 -6 15 -12 35 -14 43
-1 8 -7 34 -13 58 -9 31 -17 42 -31 42 -15 0 -20 -7 -20 -25z m45 -107 c-9
-29 -23 -44 -32 -35 -8 9 17 57 29 57 5 0 6 -10 3 -22z"/>
<path d="M6947 2436 c-9 -7 -14 -16 -11 -19 3 -3 -1 -16 -10 -29 -23 -32 -20
-71 7 -96 33 -31 65 -27 116 13 51 40 61 43 61 15 0 -21 -4 -24 -54 -35 -25
-5 -27 -8 -15 -20 8 -8 29 -17 47 -21 31 -6 33 -4 52 39 19 43 20 49 5 83 -14
34 -17 36 -50 31 -20 -3 -54 -22 -78 -42 -38 -33 -43 -34 -54 -19 -11 15 -10
21 4 36 9 10 27 18 40 18 34 0 26 30 -12 46 -24 10 -34 10 -48 0z"/>
<path d="M2099 2228 c-1 -7 -1 -17 0 -23 0 -5 -31 -23 -70 -39 -53 -22 -73
-26 -82 -17 -16 16 -37 14 -37 -4 0 -23 39 -95 51 -95 5 0 13 8 16 18 15 40
43 41 64 3 16 -28 16 -29 -9 -40 -21 -10 -27 -9 -34 3 -11 20 -24 20 -31 2 -9
-24 26 -96 46 -96 9 0 17 7 17 15 0 18 101 66 144 69 16 1 31 6 33 12 4 13
-23 81 -37 89 -5 3 -10 15 -10 25 0 48 -57 120 -61 78z m60 -104 c3 -3 1 -8
-4 -12 -6 -4 -10 -13 -10 -21 0 -7 -10 -17 -22 -22 -19 -7 -25 -3 -39 23 -13
25 -14 32 -2 40 13 8 66 3 77 -8z"/>
<path d="M6846 2170 c-16 -47 -8 -72 16 -52 20 16 139 -37 150 -67 12 -33 30
-21 52 32 21 50 18 65 -9 49 -12 -6 -27 -3 -51 8 -19 10 -52 25 -75 34 -27 11
-39 21 -36 31 4 9 -1 13 -13 12 -13 -1 -24 -15 -34 -47z"/>
<path d="M6773 2009 c-31 -47 -31 -78 1 -66 21 8 146 -53 146 -70 0 -7 -11
-13 -25 -13 -15 0 -25 -6 -25 -15 0 -17 34 -37 52 -30 15 6 88 137 88 159 0
19 -34 38 -54 30 -19 -7 -19 -9 -4 -34 21 -33 3 -32 -64 1 -46 22 -68 40 -74
58 l-9 26 -32 -46z"/>
<path d="M2193 1920 c-20 -12 -33 -28 -33 -40 0 -18 -3 -19 -20 -10 -11 6 -20
7 -20 3 0 -5 -15 -17 -34 -27 -30 -16 -33 -20 -20 -33 8 -8 14 -20 14 -27 0
-25 40 -56 74 -56 47 0 64 24 68 95 2 44 7 60 17 60 23 0 32 -52 14 -71 -27
-27 4 -35 43 -12 31 18 46 48 25 48 -5 0 -11 10 -15 23 -7 30 -43 67 -64 67
-9 0 -32 -9 -49 -20z m-40 -149 c-2 -3 -11 3 -20 12 -15 15 -15 19 -2 43 l14
27 5 -39 c3 -21 4 -41 3 -43z"/>
<path d="M6635 1769 c-43 -66 -46 -74 -34 -96 11 -20 19 -24 41 -19 23 4 35
-2 73 -40 26 -25 52 -44 58 -41 20 6 106 138 100 153 -3 9 -10 11 -22 4 -23
-12 -141 64 -141 91 0 37 -28 18 -75 -52z m72 -42 c19 -14 -2 -46 -27 -40 -13
3 -20 0 -20 -8 -1 -9 -4 -8 -11 4 -8 14 -7 24 6 43 15 24 23 24 52 1z m80 -49
c15 -12 -3 -58 -23 -58 -14 0 -26 42 -18 64 6 15 15 14 41 -6z"/>
<path d="M2331 1677 c-45 -17 -91 -73 -91 -110 0 -44 36 -95 73 -105 67 -18
142 19 166 81 35 92 -51 170 -148 134z m87 -49 c21 -21 14 -63 -15 -90 -40
-37 -66 -42 -94 -19 -20 16 -22 23 -14 47 6 17 27 38 50 51 46 26 56 28 73 11z"/>
<path d="M6472 1545 c-36 -39 -41 -58 -14 -53 20 3 144 -91 136 -104 -2 -4
-18 -5 -34 -3 -35 4 -40 -13 -12 -38 29 -27 44 -20 100 48 56 69 60 80 36 106
-18 20 -58 14 -50 -7 3 -8 9 -21 12 -29 10 -26 -9 -17 -68 32 -33 26 -58 55
-58 65 0 27 -13 22 -48 -17z"/>
<path d="M2582 1436 c4 -20 -5 -34 -49 -71 -54 -47 -79 -51 -69 -10 8 33 -12
36 -41 7 l-24 -24 23 -27 c64 -73 94 -101 108 -101 24 0 51 33 41 49 -6 10
-10 10 -16 2 -5 -9 -10 -9 -21 0 -13 10 -8 20 33 61 34 34 55 48 75 48 38 0
36 23 -4 60 -41 37 -62 39 -56 6z"/>
<path d="M6313 1373 c-39 -41 -41 -53 -10 -53 30 0 117 -88 117 -118 0 -34 34
-27 65 14 22 28 25 38 14 44 -7 5 -16 7 -19 5 -11 -7 -115 104 -115 122 0 27
-18 22 -52 -14z"/>
<path d="M3928 4971 l-526 -105 -4 -44 c-3 -39 -1 -43 17 -39 11 2 249 50 530
107 l509 102 108 -22 c60 -11 112 -19 117 -15 5 3 11 1 13 -5 1 -5 23 -10 48
-12 25 -2 47 -6 50 -9 9 -10 281 -61 296 -55 8 3 13 2 10 -3 -7 -11 130 -35
145 -25 7 4 9 3 6 -3 -7 -11 68 -27 83 -18 4 3 10 1 12 -5 1 -5 21 -11 43 -14
22 -2 48 -7 58 -11 9 -4 24 -5 32 -1 8 3 15 1 15 -4 0 -6 6 -10 13 -10 8 0 11
13 9 43 l-4 43 -526 105 -527 105 -527 -105z"/>
<path d="M2778 4585 l-3 -155 1694 0 c1540 0 1693 1 1687 16 -3 9 -6 78 -6
155 l0 139 -1685 0 -1684 0 -3 -155z"/>
<path d="M3058 4315 l-3 -85 1428 0 1428 0 -11 21 c-6 11 -10 48 -9 82 l3 62
-1416 3 -1417 2 -3 -85z"/>
<path d="M5180 4195 c0 0 0 -416 0 -925 0 -1039 -3 -996 69 -1063 l40 -37 108
0 c88 0 114 4 139 19 35 21 67 81 57 107 -5 12 -3 15 6 9 10 -6 12 0 6 25 -4
18 -3 30 1 27 8 -4 8 1822 1 1829 -1 2 -43 4 -92 5 l-90 2 -3 -893 c-2 -910
-3 -938 -38 -909 -12 9 -14 166 -16 906 l-3 895 -93 1 c-50 1 -92 2 -92 2z"/>
<path d="M3338 4075 l-3 -115 47 0 c26 0 50 5 53 10 3 6 10 10 16 10 6 0 8
-337 7 -913 l-3 -914 95 1 95 0 -2 915 c-1 504 0 912 3 906 2 -5 28 -9 56 -7
l53 4 -3 109 -3 109 -204 0 -204 0 -3 -115z"/>
<path d="M4060 4172 c-26 -12 -43 -33 -65 -77 l-30 -60 -5 -938 -5 -937 103 0
c61 0 102 4 102 10 0 6 -4 10 -10 10 -6 0 -10 38 -10 93 l0 92 30 0 30 0 0
-102 0 -103 98 0 97 0 -5 932 c-5 870 -6 936 -23 980 -20 51 -59 95 -95 109
-42 16 -174 11 -212 -9z m138 -900 l2 -702 -25 0 -25 0 -2 678 c-3 586 -1 681
12 704 8 16 20 26 25 25 7 -3 11 -249 13 -705z"/>
<path d="M4578 4079 l-3 -111 58 4 57 3 1 -900 c1 -495 1 -903 0 -907 0 -5 44
-8 99 -8 64 0 100 4 100 11 0 5 -3 8 -7 6 -5 -3 -7 399 -5 894 l2 899 58 0 57
0 -5 107 -5 108 -202 3 -202 2 -3 -111z"/>
<path d="M2860 2030 l0 -60 1595 -2 c1325 -3 1594 -1 1590 10 -3 8 -5 36 -5
63 l0 49 -1590 0 -1590 0 0 -60z"/>
<path d="M2742 1838 l3 -63 1714 -3 c1560 -2 1713 -1 1707 14 -3 9 -6 38 -6
65 l0 49 -1710 0 -1711 0 3 -62z"/>
<path d="M2738 1635 l-3 -65 1724 0 c1567 0 1723 1 1717 16 -3 9 -6 38 -6 65
l0 49 -1714 0 -1714 0 -4 -65z"/>
</g>
</svg>
